<svg width="40" height="40" viewBox="0 0 40 40" fill="none" xmlns="http://www.w3.org/2000/svg">
<path d="M38 14H22V10C22 8.4087 22.6321 6.88258 23.7574 5.75736C24.8826 4.63214 26.4087 4 28 4C28.5304 4 29.0391 3.78929 29.4142 3.41421C29.7893 3.03914 30 2.53043 30 2C30 1.46957 29.7893 0.960859 29.4142 0.585786C29.0391 0.210714 28.5304 0 28 0C25.9976 0.00413268 24.0426 0.609312 22.388 1.73718C20.7335 2.86504 19.4557 4.46365 18.72 6.326C17.029 4.12986 14.5609 2.66493 11.8231 2.23232C9.0853 1.7997 6.2858 2.43227 4 4C4 4 7.586 12.92 18.12 8.822C18.0557 9.21181 18.0156 9.60523 18 10V14H2C1.46957 14 0.960859 14.2107 0.585786 14.5858C0.210714 14.9609 0 15.4696 0 16V38C0 38.5304 0.210714 39.0391 0.585786 39.4142C0.960859 39.7893 1.46957 40 2 40H38C38.5304 40 39.0391 39.7893 39.4142 39.4142C39.7893 39.0391 40 38.5304 40 38V16C40 15.4696 39.7893 14.9609 39.4142 14.5858C39.0391 14.2107 38.5304 14 38 14ZM4 36V30C5.5913 30 7.11742 30.6321 8.24264 31.7574C9.36786 32.8826 10 34.4087 10 36H4ZM4 24V18H10C10 19.5913 9.36786 21.1174 8.24264 22.2426C7.11742 23.3679 5.5913 24 4 24ZM20 30C19.2089 30 18.4355 29.7654 17.7777 29.3259C17.1199 28.8864 16.6072 28.2616 16.3045 27.5307C16.0017 26.7998 15.9225 25.9956 16.0769 25.2196C16.2312 24.4437 16.6122 23.731 17.1716 23.1716C17.731 22.6122 18.4437 22.2312 19.2196 22.0769C19.9956 21.9225 20.7998 22.0017 21.5307 22.3045C22.2616 22.6072 22.8864 23.1199 23.3259 23.7777C23.7654 24.4355 24 25.2089 24 26C24 27.0609 23.5786 28.0783 22.8284 28.8284C22.0783 29.5786 21.0609 30 20 30ZM36 36H30C30 34.4087 30.6321 32.8826 31.7574 31.7574C32.8826 30.6321 34.4087 30 36 30V36ZM36 24C34.4087 24 32.8826 23.3679 31.7574 22.2426C30.6321 21.1174 30 19.5913 30 18H36V24Z" fill="#EA7317"/>
</svg>
