<svg width="45" height="45" viewBox="0 0 45 45" fill="none" xmlns="http://www.w3.org/2000/svg">
<path d="M35.7916 18.469C36.4868 18.4715 37.1528 18.7488 37.6444 19.2403C38.136 19.7319 38.4133 20.398 38.4158 21.0932V22.6895C38.4133 23.3847 38.136 24.0507 37.6444 24.5423C37.1528 25.0339 36.4868 25.3112 35.7916 25.3137H34.56C34.0216 26.9637 33.1014 28.4632 31.8742 29.6906C31.6879 29.8753 31.496 30.0537 31.2987 30.2258V34.8821C31.2981 35.1803 31.1793 35.4661 30.9685 35.6769C30.7576 35.8878 30.4719 36.0065 30.1737 36.0071H26.7182C26.42 36.0065 26.1342 35.8878 25.9234 35.6769C25.7125 35.4661 25.5938 35.1803 25.5932 34.8821V32.8145C25.0909 32.884 24.5844 32.9188 24.0774 32.9187H19.4495C18.9416 32.9189 18.4344 32.8841 17.9313 32.8145V34.8821C17.9307 35.1803 17.812 35.4661 17.6011 35.6769C17.3903 35.8878 17.1045 36.0065 16.8063 36.0071H13.3508C13.0526 36.0065 12.7668 35.8878 12.556 35.6769C12.3451 35.4661 12.2264 35.1803 12.2258 34.8821V30.2258C12.0284 30.0537 11.8366 29.8753 11.6503 29.6906C10.1049 28.1447 9.05385 26.1745 8.63052 24.03C8.08072 24.0042 7.562 23.7675 7.18206 23.3693C6.80212 22.971 6.59015 22.4418 6.59015 21.8913C6.59015 21.3409 6.80212 20.8117 7.18206 20.4134C7.562 20.0152 8.08072 19.7785 8.63052 19.7527C9.1253 17.2471 10.4744 14.9909 12.4476 13.3694C14.4207 11.7479 16.8955 10.8615 19.4495 10.8616H24.0774C24.8245 10.8618 25.5696 10.938 26.3013 11.089L32.3289 7.58135C32.4254 7.52538 32.5357 7.49747 32.6472 7.50075C32.7587 7.50403 32.8671 7.53837 32.9601 7.59991C33.0531 7.66145 33.1272 7.74774 33.1738 7.84907C33.2205 7.9504 33.2379 8.06274 33.2242 8.17345C33.2154 8.24541 33.1937 8.3152 33.1603 8.37951C32.2134 10.1883 31.8259 12.2378 32.0471 14.2674C33.1889 15.462 34.0477 16.8979 34.56 18.469H35.7916ZM26.1403 13.9169C26.1403 13.6185 26.0217 13.3324 25.8108 13.1214C25.5998 12.9104 25.3136 12.7919 25.0153 12.7919H18.9095C18.6111 12.7919 18.325 12.9104 18.114 13.1214C17.903 13.3324 17.7845 13.6185 17.7845 13.9169C17.7845 14.2152 17.903 14.5014 18.114 14.7124C18.325 14.9233 18.6111 15.0419 18.9095 15.0419H25.0153C25.3136 15.0419 25.5998 14.9233 25.8108 14.7124C26.0217 14.5014 26.1403 14.2152 26.1403 13.9169ZM25.5529 26.0929C25.5514 25.4393 25.3133 24.8083 24.8826 24.3166C24.5971 23.9901 24.2554 23.7173 23.8737 23.5113C23.5436 23.3398 23.1925 23.2124 22.8292 23.1324C22.5138 23.0662 22.1923 23.0337 21.87 23.0353C21.6756 23.0357 21.4815 23.0198 21.2897 22.9879C21.0793 22.9527 20.8751 22.8873 20.6834 22.7937C20.5074 22.7041 20.3518 22.5791 20.2263 22.4266C20.0955 22.2724 20.0197 22.0791 20.0108 21.8771C20.0207 21.7127 20.0742 21.5539 20.1658 21.4169C20.2573 21.28 20.3837 21.1699 20.5318 21.0979C20.9418 20.8576 21.409 20.7324 21.8842 20.7356C22.0465 20.7474 22.2073 20.7736 22.365 20.8137L22.4218 20.8279C22.6208 20.8754 22.8144 20.9428 22.9997 21.0292C23.1739 21.1081 23.3326 21.2171 23.4687 21.3513C23.5559 21.4384 23.6595 21.5075 23.7734 21.5546C23.8873 21.6016 24.0094 21.6258 24.1327 21.6257C24.2559 21.6256 24.378 21.6012 24.4918 21.5539C24.6057 21.5066 24.7091 21.4374 24.7962 21.3502C24.8833 21.2629 24.9523 21.1594 24.9994 21.0455C25.0465 20.9315 25.0706 20.8094 25.0705 20.6862C25.0704 20.5629 25.046 20.4409 24.9987 20.327C24.9515 20.2132 24.8822 20.1098 24.795 20.0227C24.4979 19.7288 24.1506 19.4906 23.7695 19.3192C23.4658 19.1785 23.1483 19.0697 22.8221 18.9948L22.796 18.99V18.2795C22.796 18.0308 22.6972 17.7922 22.5213 17.6163C22.3455 17.4404 22.1069 17.3416 21.8582 17.3416C21.6094 17.3416 21.3709 17.4404 21.195 17.6163C21.0191 17.7922 20.9203 18.0308 20.9203 18.2795V18.9616C20.4273 19.0625 19.9559 19.2493 19.5276 19.5135C19.1122 19.7548 18.7658 20.099 18.5219 20.513C18.278 20.927 18.1448 21.3968 18.135 21.8771C18.142 22.5099 18.366 23.1211 18.7697 23.6085C19.0632 23.9686 19.4297 24.2624 19.845 24.4706C20.2036 24.6493 20.5867 24.7738 20.9818 24.84C21.2754 24.8883 21.5725 24.9121 21.87 24.9111C22.0585 24.9094 22.2467 24.9276 22.4313 24.9656C22.629 25.009 22.8201 25.0783 22.9997 25.1716C23.1783 25.2697 23.3385 25.3979 23.4734 25.5506C23.6034 25.7015 23.6756 25.8937 23.6771 26.0929C23.6771 26.2137 23.6771 26.4956 23.2034 26.8035C22.7856 27.0564 22.3063 27.1899 21.8179 27.1895C21.6159 27.1791 21.4149 27.1546 21.2163 27.1161C21.0236 27.0751 20.8356 27.0148 20.655 26.9361C20.4832 26.86 20.3322 26.7438 20.2145 26.5974C20.0506 26.4135 19.8209 26.3015 19.5751 26.2855C19.3293 26.2695 19.0871 26.3508 18.9008 26.512C18.7144 26.6731 18.599 26.901 18.5794 27.1466C18.5597 27.3921 18.6375 27.6355 18.7958 27.8242C19.1083 28.1978 19.5064 28.4903 19.9563 28.6769C20.2578 28.805 20.5723 28.9003 20.8942 28.9611L20.9179 28.9682V29.6669C20.9179 29.9159 21.0168 30.1548 21.1929 30.3309C21.3691 30.507 21.6079 30.606 21.857 30.606C22.106 30.606 22.3449 30.507 22.521 30.3309C22.6971 30.1548 22.796 29.9159 22.796 29.6669V28.9563C23.302 28.8504 23.7849 28.6547 24.2218 28.3785C24.6235 28.1463 24.9575 27.8134 25.191 27.4125C25.4244 27.0116 25.5492 26.5568 25.5529 26.0929Z" fill="#EA7317"/>
</svg>
