<svg width="24" height="24" viewBox="0 0 24 24" fill="none" xmlns="http://www.w3.org/2000/svg">
<g clip-path="url(#clip0_69_77)">
<path d="M6.83014 24C6.96175 24.0007 7.09221 23.9755 7.21405 23.9258C7.33588 23.876 7.4467 23.8027 7.54014 23.71L15.7101 15.54C16.1758 15.0755 16.5452 14.5238 16.7973 13.9163C17.0493 13.3089 17.1791 12.6577 17.1791 12C17.1791 11.3423 17.0493 10.6911 16.7973 10.0837C16.5452 9.47621 16.1758 8.92446 15.7101 8.46L7.54014 0.290013C7.4469 0.196775 7.33621 0.122814 7.21439 0.0723539C7.09257 0.0218937 6.962 -0.00407791 6.83014 -0.00407791C6.69828 -0.00407791 6.56771 0.0218937 6.44589 0.0723539C6.32407 0.122814 6.21338 0.196775 6.12014 0.290013C6.0269 0.383252 5.95294 0.493942 5.90248 0.615764C5.85202 0.737586 5.82605 0.868153 5.82605 1.00001C5.82605 1.13187 5.85202 1.26244 5.90248 1.38426C5.95294 1.50608 6.0269 1.61677 6.12014 1.71001L14.2901 9.88C14.8519 10.4425 15.1675 11.205 15.1675 12C15.1675 12.795 14.8519 13.5575 14.2901 14.12L6.12014 22.29C6.02641 22.383 5.95202 22.4936 5.90125 22.6154C5.85048 22.7373 5.82434 22.868 5.82434 23C5.82434 23.132 5.85048 23.2627 5.90125 23.3846C5.95202 23.5064 6.02641 23.617 6.12014 23.71C6.21358 23.8027 6.32439 23.876 6.44623 23.9258C6.56807 23.9755 6.69853 24.0007 6.83014 24Z" fill="white"/>
</g>
<defs>
<clipPath id="clip0_69_77">
<rect width="24" height="24" fill="white" transform="matrix(-1 0 0 1 24 0)"/>
</clipPath>
</defs>
</svg>
