<svg width="24" height="24" viewBox="0 0 24 24" fill="none" xmlns="http://www.w3.org/2000/svg">
<g clip-path="url(#clip0_69_75)">
<path d="M17.1699 24C17.0383 24.0007 16.9078 23.9755 16.786 23.9258C16.6641 23.876 16.5533 23.8027 16.4599 23.71L8.28986 15.54C7.82423 15.0755 7.4548 14.5238 7.20274 13.9163C6.95067 13.3089 6.82092 12.6577 6.82092 12C6.82092 11.3423 6.95067 10.6911 7.20274 10.0837C7.4548 9.47621 7.82423 8.92446 8.28986 8.46L16.4599 0.290013C16.5531 0.196775 16.6638 0.122814 16.7856 0.0723539C16.9074 0.0218937 17.038 -0.00407791 17.1699 -0.00407791C17.3017 -0.00407791 17.4323 0.0218937 17.5541 0.0723539C17.6759 0.122814 17.7866 0.196775 17.8799 0.290013C17.9731 0.383252 18.0471 0.493942 18.0975 0.615764C18.148 0.737586 18.174 0.868153 18.174 1.00001C18.174 1.13187 18.148 1.26244 18.0975 1.38426C18.0471 1.50608 17.9731 1.61677 17.8799 1.71001L9.70986 9.88C9.14806 10.4425 8.8325 11.205 8.8325 12C8.8325 12.795 9.14806 13.5575 9.70986 14.12L17.8799 22.29C17.9736 22.3829 18.048 22.4936 18.0988 22.6154C18.1495 22.7373 18.1757 22.868 18.1757 23C18.1757 23.132 18.1495 23.2627 18.0988 23.3846C18.048 23.5064 17.9736 23.617 17.8799 23.71C17.7864 23.8027 17.6756 23.876 17.5538 23.9258C17.4319 23.9755 17.3015 24.0007 17.1699 24Z" fill="white"/>
</g>
<defs>
<clipPath id="clip0_69_75">
<rect width="24" height="24" fill="white"/>
</clipPath>
</defs>
</svg>
