<svg width="35" height="35" viewBox="0 0 35 35" fill="none" xmlns="http://www.w3.org/2000/svg">
<g clip-path="url(#clip0_69_216)">
<path d="M7.16622 13.6001C3.57439 13.6001 0.656755 10.6825 0.656755 7.09064C0.656755 3.49881 3.59183 0.581177 7.16622 0.581177C10.7581 0.581177 13.6757 3.49881 13.6757 7.09064C13.6757 10.6825 10.7639 13.6001 7.16622 13.6001ZM7.16622 1.81333C4.26602 1.81333 1.89472 4.18463 1.89472 7.08483C1.89472 9.98503 4.26602 12.3563 7.16622 12.3563C10.0664 12.3563 12.4377 9.98503 12.4377 7.08483C12.4377 4.18463 10.0897 1.81333 7.16622 1.81333ZM23.0447 24.7592C24.2187 23.2597 24.0153 21.0744 22.4518 19.848C20.9523 18.674 18.7147 18.9414 17.5407 20.4409C16.3667 21.9404 16.5701 24.1257 18.1335 25.352C19.633 26.5144 21.8706 26.2471 23.0447 24.7592ZM18.8077 23.1551C18.3369 22.7773 18.2033 22.1961 18.5113 21.5626L18.0405 21.1848L18.459 20.6443L18.8774 20.9698C19.0692 20.7256 19.418 20.5222 19.6737 20.3362L20.1328 20.9814C19.9817 21.0511 19.726 21.2487 19.447 21.6033C19.2204 21.8997 19.1913 22.1728 19.3657 22.3181C19.54 22.4518 19.8132 22.3704 20.313 22.1031C21.0163 21.6963 21.4987 21.5742 21.9753 21.952C22.353 22.3414 22.4228 22.9749 22.1671 23.5561L22.6378 23.9339L22.2194 24.4744L21.8009 24.1489C21.6091 24.393 21.1151 24.7708 20.9233 24.9045L20.4641 24.2594C20.7199 24.178 21.1267 23.9106 21.3534 23.6142C21.6382 23.2481 21.6498 22.9807 21.4231 22.7889C21.2488 22.6552 21.0337 22.6669 20.5164 22.9517C19.9004 23.3411 19.2843 23.5329 18.8077 23.1551ZM6.4804 8.35766C6.29442 8.24723 6.18399 8.04381 6.18399 7.82296V3.5395C6.18399 3.19659 6.46878 2.92923 6.79425 2.92923C7.11972 2.92923 7.40451 3.21402 7.40451 3.5395V6.78842L10.4151 5.14361C10.7116 4.98669 11.0893 5.09712 11.2463 5.39353C11.4032 5.68995 11.2928 6.06773 10.9963 6.22465L7.07323 8.35766C6.99767 8.4216 6.68382 8.46809 6.4804 8.35766ZM26.2994 10.8452L24.2594 13.141L22.0624 11.4264L16.6108 18.4183C16.5003 18.3485 16.1807 18.2032 16.1516 18.1625C14.9892 17.622 13.4258 17.6743 12.2924 18.2555L0.494019 24.8406V33.5877L5.71903 31.0362C8.06708 32.1405 10.7522 31.8615 12.9143 30.5247L18.0173 34.506L19.54 32.5473L20.7431 33.6109L34.506 18.1567L26.2994 10.8452ZM19.2029 31.414C18.2149 30.9025 16.9885 31.0652 16.1807 31.8324L12.1181 28.6474C11.2288 29.3623 10.1478 29.7401 9.0435 29.7401C8.54367 29.7401 8.05546 29.6587 7.57306 29.5134C7.32896 29.4321 7.19528 29.1763 7.26503 28.9322C7.34639 28.6881 7.60212 28.5544 7.84623 28.6242C9.04932 29.002 10.357 28.7869 11.3683 28.0546C11.624 27.8628 11.8972 27.6361 12.1762 27.3281L13.42 25.8577L17.0118 28.6765C17.6337 29.1066 18.3602 29.002 18.767 28.5138C19.1971 27.8919 19.0925 27.1479 18.6043 26.7585L12.1529 21.5626C11.9611 21.4115 11.9379 21.1325 12.0832 20.9407C12.2343 20.7489 12.5133 20.7256 12.7051 20.8709L14.687 22.4634L20.9291 14.437C21.8881 14.9369 23.0621 14.7858 23.8584 14.0709L27.6245 17.0001C27.1131 17.9882 27.2874 19.1971 28.0546 20.0108L19.2029 31.414ZM21.3069 30.269L30.7282 18.1742L25.2881 13.9372C26.1541 14.315 27.177 14.1929 27.9326 13.6001L31.4953 16.7735C30.9258 17.7208 31.0071 18.9472 31.722 19.7957L22.1264 30.577C21.8706 30.4433 21.6033 30.3329 21.3069 30.269Z" fill="#EA7317"/>
</g>
<defs>
<clipPath id="clip0_69_216">
<rect width="35" height="35" fill="white"/>
</clipPath>
</defs>
</svg>
