<svg width="35" height="35" viewBox="0 0 35 35" fill="none" xmlns="http://www.w3.org/2000/svg">
<path d="M1.28378 1.33301V6.77824C4.33835 7.15982 6.85623 8.4849 9.25838 10.0018L7.56649 11.3733L14.5243 14.9215L12.6143 7.28027L10.8435 8.71582C9.46093 5.98076 7.91922 3.40225 5.87036 1.33301H1.28378ZM20.245 1.33301C19.177 3.29937 18.2485 5.30646 17.389 7.3593L15.3252 6.92139L17.0985 14.5947L21.6826 8.27148L19.6597 7.84219C21.9354 5.4669 24.2806 3.2079 27.0468 1.33301H20.245ZM33.746 7.74813C31.1492 7.91779 28.8214 9.09323 26.5662 10.5444L25.7138 8.3207L20.2408 13.9838L28.0402 14.3896L27.1344 12.0269C29.3383 11.9631 31.5421 12.1518 33.746 13.4881V7.74813ZM20.4822 16.5002C20.1213 16.5084 19.7843 16.6653 19.3244 17.1561L18.8757 17.6324L18.41 17.173C17.905 16.6754 17.5066 16.538 17.1026 16.5558C16.6988 16.5735 16.2239 16.7859 15.6927 17.2158L15.2676 17.5597L14.8639 17.1923C14.2555 16.6419 13.737 16.4788 13.2404 16.5044C12.8789 16.5231 12.5038 16.6593 12.1295 16.8975L14.9301 21.9347C15.9865 22.5809 18.1452 22.8239 19.6298 22.0758L22.3364 17.062C21.823 16.8527 21.3616 16.6381 20.9628 16.5558C20.8184 16.5259 20.6844 16.5041 20.5547 16.5002C20.5305 16.4995 20.5062 16.4996 20.4822 16.5002ZM14.3319 23.0757C13.0991 23.9467 12.1092 25.449 11.7257 27.6492C11.3542 29.7818 11.9396 31.222 12.9755 32.2036C14.0115 33.1853 15.5664 33.6896 17.1454 33.669C18.7245 33.6485 20.2992 33.101 21.3581 32.1012C22.4169 31.1013 23.0158 29.6795 22.6762 27.6449C22.325 25.5424 21.4184 24.0801 20.2706 23.1952C18.3236 24.2244 15.8892 24.0056 14.3319 23.0755V23.0757Z" fill="#EA7317"/>
</svg>
