<svg width="20" height="20" viewBox="0 0 20 20" fill="none" xmlns="http://www.w3.org/2000/svg">
<g clip-path="url(#clip0_69_110)">
<path d="M18.3333 0H14.1667C13.7246 0 13.3007 0.175595 12.9882 0.488155C12.6756 0.800716 12.5 1.22464 12.5 1.66667V7.45667C12.5004 7.77832 12.5916 8.09334 12.763 8.36549C12.9344 8.63766 13.1792 8.85592 13.4691 8.99518C13.7591 9.13445 14.0824 9.18908 14.402 9.15278C14.7216 9.11649 15.0245 8.99074 15.2758 8.79L16.25 8.01083L17.2242 8.79083C17.4755 8.99162 17.7785 9.11737 18.0982 9.15364C18.4178 9.18991 18.7413 9.13521 19.0312 8.99584C19.3212 8.85647 19.566 8.63808 19.7373 8.3658C19.9087 8.09352 19.9998 7.77839 20 7.45667V1.66667C20 1.22464 19.8244 0.800716 19.5118 0.488155C19.1993 0.175595 18.7754 0 18.3333 0V0ZM18.2658 7.48917L16.7708 6.29333C16.623 6.175 16.4393 6.11052 16.25 6.11052C16.0607 6.11052 15.877 6.175 15.7292 6.29333L14.1667 7.45667V1.66667H18.3333L18.2658 7.48917ZM20 11.6667V15.8333C19.9987 16.938 19.5593 17.997 18.7782 18.7782C17.997 19.5593 16.938 19.9987 15.8333 20H4.16667C3.062 19.9987 2.00296 19.5593 1.22185 18.7782C0.440735 17.997 0.00132321 16.938 0 15.8333L0 6.66667C0.00132321 5.562 0.440735 4.50296 1.22185 3.72185C2.00296 2.94073 3.062 2.50132 4.16667 2.5H10C10.221 2.5 10.433 2.5878 10.5893 2.74408C10.7455 2.90036 10.8333 3.11232 10.8333 3.33333C10.8333 3.55435 10.7455 3.76631 10.5893 3.92259C10.433 4.07887 10.221 4.16667 10 4.16667H4.16667C3.71351 4.16792 3.26927 4.29273 2.88176 4.52767C2.49426 4.76261 2.17817 5.09878 1.9675 5.5L8.23167 11.765C8.70821 12.2192 9.34127 12.4725 9.99958 12.4725C10.6579 12.4725 11.291 12.2192 11.7675 11.765L12.4825 11.0675C12.5607 10.9909 12.6533 10.9305 12.7549 10.8896C12.8565 10.8488 12.9652 10.8284 13.0747 10.8295C13.1842 10.8307 13.2924 10.8534 13.3931 10.8964C13.4938 10.9394 13.5851 11.0018 13.6617 11.08C13.7383 11.1582 13.7987 11.2508 13.8395 11.3524C13.8804 11.454 13.9008 11.5627 13.8996 11.6722C13.8985 11.7817 13.8758 11.8899 13.8328 11.9906C13.7898 12.0913 13.7274 12.1826 13.6492 12.2592L12.9417 12.95C12.157 13.7232 11.0994 14.156 9.9978 14.1548C8.89624 14.1535 7.83954 13.7183 7.05667 12.9433L1.66667 7.55917V15.8333C1.66667 16.4964 1.93006 17.1323 2.3989 17.6011C2.86774 18.0699 3.50363 18.3333 4.16667 18.3333H15.8333C16.4964 18.3333 17.1323 18.0699 17.6011 17.6011C18.0699 17.1323 18.3333 16.4964 18.3333 15.8333V11.6667C18.3333 11.4457 18.4211 11.2337 18.5774 11.0774C18.7337 10.9211 18.9457 10.8333 19.1667 10.8333C19.3877 10.8333 19.5996 10.9211 19.7559 11.0774C19.9122 11.2337 20 11.4457 20 11.6667Z" fill="#EA7317"/>
</g>
<defs>
<clipPath id="clip0_69_110">
<rect width="20" height="20" fill="white"/>
</clipPath>
</defs>
</svg>
