<svg width="40" height="40" viewBox="0 0 40 40" fill="none" xmlns="http://www.w3.org/2000/svg">
<path d="M35.625 7.125L21.875 0.125C21.5 1.86265e-09 21.125 1.86265e-09 20.75 0.125L7 7.125C6.5 7.375 6.25 7.75 6.25 8.25V11.25C6.25 12 6.75 12.5 7.5 12.5H35C35.75 12.5 36.25 12 36.25 11.25V8.25C36.25 7.75 36 7.375 35.625 7.125Z" fill="#EA7317"/>
<path d="M37.375 20.625C37.125 20.25 36.75 20 36.25 20C33.5 20 30.875 21.25 29.25 23.5L28.125 25C26.75 26.625 24.625 27.5 22.5 27.5H18.75C18 27.5 17.5 27 17.5 26.25C17.5 25.5 18 25 18.75 25H21.125C23.125 25 25 23.375 25 21.375V21.25C25 20.625 24.375 20 23.75 20H16.125C11.625 20 8 22 6 25.25L2.625 30.5C2.375 30.875 2.375 31.375 2.625 31.75L6.375 38C6.5 38.25 6.875 38.5 7.125 38.625C7.25 38.625 7.25 38.625 7.375 38.625C7.625 38.625 7.875 38.5 8.125 38.375C12.875 35.25 18.375 33.625 24 33.625C28.125 33.625 31.875 31.375 33.875 27.75L37.25 21.75C37.5 21.5 37.5 21 37.375 20.625Z" fill="#EA7317"/>
<path d="M32.5 18.125V15C32.5 14.25 32 13.75 31.25 13.75H28.75C28 13.75 27.5 14.25 27.5 15V21.625C28.875 20 30.5 18.875 32.5 18.125Z" fill="#EA7317"/>
<path d="M23.75 17.5V15C23.75 14.25 23.25 13.75 22.5 13.75H20C19.25 13.75 18.75 14.25 18.75 15V17.5H23.75Z" fill="#EA7317"/>
<path d="M15 17.625V15C15 14.25 14.5 13.75 13.75 13.75H11.25C10.5 13.75 10 14.25 10 15V18.75C11.5 18.125 13.25 17.75 15 17.625Z" fill="#EA7317"/>
</svg>
