<svg width="35" height="35" viewBox="0 0 35 35" fill="none" xmlns="http://www.w3.org/2000/svg">
<path d="M16.0417 8.74996C15.7125 8.76124 15.3891 8.66071 15.1243 8.46475C14.8595 8.26879 14.6688 7.98894 14.5834 7.67079L13.7959 4.75413C13.7389 4.53672 13.7329 4.30909 13.7785 4.089C13.824 3.86891 13.9198 3.66233 14.0584 3.48538C14.2044 3.2946 14.3953 3.14286 14.6141 3.04364C14.8329 2.94442 15.0728 2.90079 15.3125 2.91663H19.6875C19.9102 2.91716 20.1299 2.9687 20.3296 3.06729C20.5293 3.16588 20.7038 3.3089 20.8396 3.48538C20.9782 3.66233 21.074 3.86891 21.1195 4.089C21.165 4.30909 21.1591 4.53672 21.1021 4.75413L20.3292 7.67079C20.2476 7.9744 20.07 8.2435 19.8229 8.43797C19.5759 8.63245 19.2727 8.74188 18.9584 8.74996H16.1292H16.0417Z" fill="white"/>
<path d="M28.4229 19.2062L26.4104 12.4541C25.8347 10.5386 24.657 8.85963 23.052 7.66609C21.447 6.47255 19.5001 5.828 17.5 5.828C15.4998 5.828 13.5529 6.47255 11.9479 7.66609C10.3429 8.85963 9.16527 10.5386 8.58957 12.4541L6.57707 19.2062C6.08358 20.8327 5.83296 22.5231 5.83332 24.2229C5.83205 25.7807 6.32977 27.2981 7.25355 28.5525C8.17732 29.807 9.47858 30.7326 10.9666 31.1937C13.0884 31.8119 15.2902 32.1117 17.5 32.0833C19.7098 32.1117 21.9116 31.8119 24.0333 31.1937C25.5214 30.7326 26.8226 29.807 27.7464 28.5525C28.6702 27.2981 29.1679 25.7807 29.1666 24.2229C29.167 22.5231 28.9164 20.8327 28.4229 19.2062Z" fill="#EA7317"/>
<path d="M18.2292 17.5H16.7708C16.5775 17.5 16.392 17.4231 16.2552 17.2864C16.1185 17.1496 16.0417 16.9642 16.0417 16.7708C16.0417 16.5774 16.1185 16.3919 16.2552 16.2552C16.392 16.1184 16.5775 16.0416 16.7708 16.0416H20.4167C20.8035 16.0416 21.1744 15.888 21.4479 15.6145C21.7214 15.341 21.875 14.9701 21.875 14.5833C21.875 14.1965 21.7214 13.8256 21.4479 13.5521C21.1744 13.2786 20.8035 13.125 20.4167 13.125H18.9583C18.9583 12.7382 18.8047 12.3673 18.5312 12.0938C18.2577 11.8203 17.8868 11.6666 17.5 11.6666C17.1132 11.6666 16.7423 11.8203 16.4688 12.0938C16.1953 12.3673 16.0417 12.7382 16.0417 13.125V13.1979C15.1556 13.3778 14.368 13.8805 13.8318 14.6085C13.2956 15.3364 13.0489 16.2376 13.1398 17.1372C13.2307 18.0368 13.6525 18.8705 14.3235 19.4765C14.9945 20.0825 15.8667 20.4175 16.7708 20.4166H18.2292C18.4226 20.4166 18.608 20.4934 18.7448 20.6302C18.8815 20.7669 18.9583 20.9524 18.9583 21.1458C18.9583 21.3392 18.8815 21.5246 18.7448 21.6614C18.608 21.7981 18.4226 21.875 18.2292 21.875H14.5833C14.1966 21.875 13.8256 22.0286 13.5521 22.3021C13.2787 22.5756 13.125 22.9465 13.125 23.3333C13.125 23.7201 13.2787 24.091 13.5521 24.3645C13.8256 24.638 14.1966 24.7916 14.5833 24.7916H16.0417C16.0417 25.1784 16.1953 25.5493 16.4688 25.8228C16.7423 26.0963 17.1132 26.25 17.5 26.25C17.8868 26.25 18.2577 26.0963 18.5312 25.8228C18.8047 25.5493 18.9583 25.1784 18.9583 24.7916C19.9253 24.6949 20.8142 24.2181 21.4296 23.466C22.0449 22.7139 22.3363 21.7481 22.2396 20.7812C22.1429 19.8143 21.6661 18.9254 20.914 18.31C20.1619 17.6946 19.1961 17.4033 18.2292 17.5Z" fill="white"/>
</svg>
