<svg width="40" height="40" viewBox="0 0 40 40" fill="none" xmlns="http://www.w3.org/2000/svg">
<g opacity="0.2">
<rect width="40" height="40" rx="20" fill="#EA7317"/>
</g>
<g clip-path="url(#clip0_69_138)">
<path d="M14.9726 17.3015H11.4641V28.5304H14.9726V17.3015Z" fill="#EA7317"/>
<path d="M13.1445 12C11.8508 12 11 12.8367 11 13.9477C11 15.0375 11.8227 15.8953 13.0953 15.8953H13.1234C14.4453 15.8953 15.268 15.0305 15.2609 13.9477C15.2328 12.8367 14.4383 12 13.1445 12Z" fill="#EA7317"/>
<path d="M24.5563 17.196C22.5453 17.196 21.2867 18.2929 21.0547 19.0664V17.3015H17.1102C17.1594 18.2367 17.1102 28.5304 17.1102 28.5304H21.0547V22.4625C21.0547 22.1179 21.0406 21.7804 21.1391 21.5414C21.4063 20.8664 21.9899 20.1632 23.0375 20.1632C24.4086 20.1632 25.0274 21.2039 25.0274 22.7226V28.5304H29.007V22.2867C29.007 18.8132 27.0524 17.196 24.5563 17.196Z" fill="#EA7317"/>
</g>
<defs>
<clipPath id="clip0_69_138">
<rect width="18" height="16.5305" fill="white" transform="translate(11 12)"/>
</clipPath>
</defs>
</svg>
