<svg width="20" height="20" viewBox="0 0 20 20" fill="none" xmlns="http://www.w3.org/2000/svg">
<g clip-path="url(#clip0_69_107)">
<path d="M9.99996 20.0002C8.81334 20.0027 7.6734 19.5381 6.82663 18.7068L3.54163 15.671C2.67066 14.8255 1.97629 13.8155 1.49881 12.6995C1.02132 11.5835 0.770248 10.3838 0.760144 9.16997C0.750041 7.95616 0.981113 6.75244 1.43995 5.62865C1.89879 4.50486 2.57625 3.4834 3.43302 2.62353C4.2898 1.76367 5.30882 1.08253 6.43094 0.619655C7.55307 0.156775 8.75596 -0.0786292 9.96979 -0.0728958C11.1836 -0.0671624 12.3842 0.179594 13.5019 0.653054C14.6196 1.12651 15.6322 1.81725 16.4808 2.68516C18.1998 4.40424 19.1655 6.73575 19.1655 9.16683C19.1655 11.5979 18.1998 13.9294 16.4808 15.6485L13.155 18.7227C12.3116 19.5459 11.1785 20.0047 9.99996 20.0002ZM9.99996 1.66683C8.51659 1.66682 7.06653 2.10668 5.83315 2.93079C4.59977 3.7549 3.63846 4.92624 3.0708 6.2967C2.50314 7.66715 2.35461 9.17516 2.64401 10.63C2.9334 12.0849 3.64772 13.4213 4.69663 14.4702L7.97496 17.5002C8.51724 18.0183 9.2376 18.3088 9.98764 18.3118C10.7377 18.3147 11.4603 18.0299 12.0066 17.516L15.3266 14.4477C16.7228 13.0389 17.5042 11.1344 17.4996 9.15101C17.4951 7.16758 16.7051 5.2667 15.3025 3.86433C14.6078 3.16562 13.7815 2.61163 12.8713 2.23442C11.9612 1.85722 10.9852 1.6643 9.99996 1.66683ZM9.99996 15.0002C8.84624 15.0002 7.71842 14.658 6.75913 14.0171C5.79985 13.3761 5.05217 12.4651 4.61066 11.3992C4.16915 10.3333 4.05363 9.16036 4.27871 8.02881C4.50379 6.89725 5.05936 5.85785 5.87517 5.04204C6.69098 4.22624 7.73038 3.67066 8.86193 3.44558C9.99349 3.2205 11.1664 3.33602 12.2323 3.77753C13.2982 4.21905 14.2092 4.96672 14.8502 5.926C15.4912 6.88529 15.8333 8.01311 15.8333 9.16683C15.8315 10.7134 15.2164 12.1961 14.1228 13.2897C13.0292 14.3833 11.5465 14.9984 9.99996 15.0002ZM9.99996 5.00016C9.17587 5.00016 8.37029 5.24454 7.68508 5.70237C6.99988 6.16021 6.46583 6.81096 6.15046 7.57232C5.8351 8.33368 5.75258 9.17145 5.91335 9.97971C6.07413 10.788 6.47096 11.5304 7.05368 12.1131C7.6364 12.6958 8.37883 13.0927 9.18708 13.2534C9.99534 13.4142 10.8331 13.3317 11.5945 13.0163C12.3558 12.701 13.0066 12.1669 13.4644 11.4817C13.9223 10.7965 14.1666 9.99092 14.1666 9.16683C14.1653 8.06217 13.7259 7.00313 12.9448 6.22201C12.1637 5.4409 11.1046 5.00149 9.99996 5.00016ZM11.4225 10.5893C11.5787 10.4331 11.6664 10.2211 11.6664 10.0002C11.6664 9.7792 11.5787 9.56727 11.4225 9.411L10.8333 8.82183V7.50017C10.8333 7.27915 10.7455 7.06719 10.5892 6.91091C10.4329 6.75463 10.221 6.66683 9.99996 6.66683C9.77895 6.66683 9.56699 6.75463 9.4107 6.91091C9.25442 7.06719 9.16663 7.27915 9.16663 7.50017V9.16683C9.16667 9.38783 9.2545 9.59976 9.41079 9.756L10.2441 10.5893C10.4004 10.7456 10.6123 10.8333 10.8333 10.8333C11.0543 10.8333 11.2662 10.7456 11.4225 10.5893Z" fill="#EA7317"/>
</g>
<defs>
<clipPath id="clip0_69_107">
<rect width="20" height="20" fill="white"/>
</clipPath>
</defs>
</svg>
