<svg width="215" height="122" viewBox="0 0 215 122" fill="none" xmlns="http://www.w3.org/2000/svg">
<path d="M115.09 32.9581L126.863 44.2182L115.195 24L95.6083 54.6496L115.09 32.9581Z" fill="#E97319"/>
<path d="M115.09 46.0467L125.824 47.6909L115.195 37.0754L95.6083 58.3065L115.09 46.0467Z" fill="#E97319"/>
<path d="M115.09 57.8066L126.863 50.769L115.195 48.8354L97.1737 60.4506L115.09 57.8066Z" fill="#E97319"/>
<path d="M93.1353 97.48C86.545 97.48 81.941 93.1391 81.941 86.6672C81.941 80.2216 86.887 75.8543 93.2274 75.8543C97.2131 75.8543 99.7519 77.4329 101.173 78.7746L99.9492 80.5636C98.9495 79.3534 96.3844 77.8933 93.2932 77.8933C88.084 77.8933 84.414 81.4186 84.414 86.6146C84.414 91.8105 88.1761 95.3359 93.2932 95.3359C96.2792 95.3359 98.5943 94.2967 100.147 92.7182L101.37 94.323C99.8835 95.8621 97.2394 97.48 93.1353 97.48Z" fill="white"/>
<path d="M115.182 76.0779L124.443 97.1117H121.706L119.247 91.2449H109.105L106.632 97.1117H104.119L113.353 76.0779H115.182ZM114.182 79.1824L109.947 89.2454H118.405L114.182 79.1824Z" fill="white"/>
<path d="M139.465 77.446C140.938 78.4457 141.754 79.9716 141.754 81.9185C141.754 84.1021 140.662 85.7201 138.991 86.6935C137.676 87.4564 135.834 87.7327 134.137 87.7327H131.217V97.1249H128.81V76.1437H134.571C136.466 76.1437 138.241 76.6041 139.465 77.446ZM137.755 84.9571C138.689 84.352 139.267 83.3786 139.267 81.9448C139.267 80.5899 138.702 79.5902 137.755 78.9456C136.913 78.3668 135.768 78.0774 134.44 78.0774H131.191V85.7595H134.308C135.795 85.7727 136.887 85.5359 137.755 84.9571Z" fill="white"/>
<path d="M149.304 76.1437V97.1117H146.897V76.1437H149.304Z" fill="white"/>
<path d="M153.737 78.0906V76.1437H169.049V78.0906H162.616V97.1117H160.209V78.0906H153.737Z" fill="white"/>
<path d="M179.849 76.0779L189.109 97.1117H186.373L183.913 91.2449H173.771L171.298 97.1117H168.786L178.02 76.0779H179.849ZM178.849 79.1824L174.613 89.2454H183.071L178.849 79.1824Z" fill="white"/>
<path d="M195.857 76.1437V95.0728H203.697V97.1117H193.437V76.1437H195.857Z" fill="white"/>
<path d="M21.6416 97.4669C15.117 97.4669 10 93.389 10 86.654C10 79.8795 15.1828 75.8412 21.6416 75.8412C26.2061 75.8412 28.6791 77.6301 29.2579 78.2089L27.6531 82.2868C27.2322 81.7738 24.8512 80.1032 21.931 80.1032C18.1688 80.1032 15.2749 82.4709 15.2749 86.5751C15.2749 90.6792 18.3004 93.0207 21.931 93.0207C24.6934 93.0207 26.6928 91.9815 27.9162 90.7976L29.6525 94.6255C28.5213 95.7173 26.1798 97.4669 21.6416 97.4669Z" fill="white"/>
<path d="M38.808 76.1437V93.0339H46.4901V97.1117H33.6252V76.1437H38.808Z" fill="white"/>
<path d="M69.9442 85.1676V93.8626C68.8129 94.8097 66.1821 97.4537 60.0785 97.4537C53.9354 97.4537 48.529 93.6258 48.529 86.6409C48.529 79.6559 53.9354 75.8543 60.1311 75.8543C66.0111 75.8543 68.5499 78.7746 69.2602 79.4981L65.8138 82.3263C64.8798 81.3528 63.1434 79.9322 60.1179 79.9322C56.5531 79.9322 53.7776 82.392 53.7776 86.654C53.7776 90.9029 56.6057 93.3759 60.21 93.3759C63.8143 93.3759 64.8403 92.0341 64.8403 92.0341V88.9297H60.1969V85.1939H69.9442V85.1676Z" fill="white"/>
</svg>
