<svg width="50" height="50" viewBox="0 0 50 50" fill="none" xmlns="http://www.w3.org/2000/svg">
<path fill-rule="evenodd" clip-rule="evenodd" d="M35.5 12C35.8176 12.0064 36.1204 12.1354 36.345 12.36C36.5696 12.5846 36.6986 12.8874 36.705 13.205V25.425C36.4211 25.3826 36.1427 25.3088 35.875 25.205C35.464 25.0003 35.0781 24.7486 34.725 24.455C34.1 24 33.47 23.5 32.75 23.5C32.4485 23.5053 32.1524 23.5806 31.885 23.72V20.335C31.8885 20.277 31.8796 20.2189 31.8589 20.1646C31.8382 20.1103 31.8062 20.061 31.765 20.02C31.7257 19.9797 31.678 19.9485 31.6253 19.9286C31.5726 19.9088 31.5162 19.9007 31.46 19.905H30.545C30.447 19.9093 30.3541 19.9503 30.285 20.02C30.2438 20.061 30.2118 20.1103 30.1911 20.1646C30.1704 20.2189 30.1615 20.277 30.165 20.335V24.91C29.9967 25.0226 29.8194 25.1213 29.635 25.205C29.4036 25.2956 29.1642 25.3643 28.92 25.41V20.335C28.92 20.221 28.8747 20.1116 28.7941 20.0309C28.7134 19.9503 28.604 19.905 28.49 19.905C28.376 19.905 28.2666 19.9503 28.1859 20.0309C28.1053 20.1116 28.06 20.221 28.06 20.335V25.55C27.7859 25.5877 27.5138 25.6395 27.245 25.705V20.335C27.2494 20.2773 27.2415 20.2194 27.2216 20.165C27.2018 20.1107 27.1706 20.0612 27.13 20.02C27.0895 19.9798 27.0409 19.9488 26.9874 19.929C26.934 19.9091 26.8769 19.901 26.82 19.905H25.05C24.9504 19.909 24.8559 19.95 24.785 20.02C24.7444 20.0612 24.7132 20.1107 24.6934 20.165C24.6735 20.2194 24.6656 20.2773 24.67 20.335V26.835C24.6754 26.9343 24.7162 27.0283 24.785 27.1C24.8253 27.1404 24.8739 27.1716 24.9274 27.1915C24.9809 27.2113 25.0381 27.2194 25.095 27.215H25.695C25.6282 27.4735 25.5765 27.7356 25.54 28H18.605C18.5052 28.0072 18.4112 28.0497 18.34 28.12C18.2996 28.1603 18.2684 28.2089 18.2485 28.2624C18.2287 28.3159 18.2206 28.3731 18.225 28.43V28.93C18.2268 28.9837 18.2396 29.0364 18.2625 29.085C18.2854 29.1336 18.318 29.177 18.3582 29.2126C18.3985 29.2481 18.4455 29.2751 18.4966 29.2919C18.5476 29.3086 18.6015 29.3148 18.655 29.31H25.315C25.28 29.42 25.245 29.53 25.205 29.635C25.0003 30.046 24.7486 30.4319 24.455 30.785C24 31.4 23.5 32.03 23.5 32.75C23.5 33.47 24 34.1 24.455 34.715L24.78 35.15H21.145V36.395C21.1387 36.7117 21.0103 37.0138 20.7868 37.2383C20.5632 37.4628 20.2617 37.5923 19.945 37.6H18.57C18.2524 37.5936 17.9496 37.4646 17.725 37.24C17.5004 37.0154 17.3714 36.7126 17.365 36.395V35.195H14.705C14.3891 35.1887 14.0877 35.0611 13.8634 34.8386C13.6391 34.6161 13.5089 34.3158 13.5 34V13.205C13.5064 12.8874 13.6354 12.5846 13.86 12.36C14.0846 12.1354 14.3874 12.0064 14.705 12H35.5ZM20.42 19.905H20.375C20.4319 19.9006 20.4891 19.9086 20.5426 19.9285C20.5961 19.9484 20.6447 19.9796 20.685 20.02C20.7256 20.0612 20.7568 20.1107 20.7766 20.165C20.7965 20.2194 20.8044 20.2773 20.8 20.335V26.775C20.8038 26.8326 20.7955 26.8904 20.7757 26.9446C20.7559 26.9989 20.725 27.0484 20.685 27.09C20.6438 27.1306 20.5943 27.1618 20.54 27.1816C20.4856 27.2015 20.4277 27.2094 20.37 27.205H18.655C18.6015 27.2098 18.5476 27.2036 18.4966 27.1869C18.4455 27.1701 18.3985 27.1431 18.3582 27.1076C18.318 27.072 18.2854 27.0286 18.2625 26.98C18.2396 26.9314 18.2268 26.8787 18.225 26.825V20.325C18.2206 20.2673 18.2285 20.2094 18.2484 20.155C18.2682 20.1007 18.2994 20.0512 18.34 20.01C18.4117 19.9412 18.5057 19.9004 18.605 19.895H20.42V19.905ZM23 19.905H22.955C23.0112 19.9007 23.0676 19.9088 23.1203 19.9286C23.173 19.9485 23.2207 19.9797 23.26 20.02C23.3012 20.061 23.3332 20.1103 23.3539 20.1646C23.3746 20.2189 23.3835 20.277 23.38 20.335V26.775C23.3831 26.833 23.3741 26.891 23.3534 26.9452C23.3328 26.9995 23.3009 27.0488 23.26 27.09C23.2197 27.1304 23.1711 27.1616 23.1176 27.1815C23.0641 27.2013 23.0069 27.2094 22.95 27.205H22.09C22.0331 27.2094 21.9759 27.2013 21.9224 27.1815C21.8689 27.1616 21.8203 27.1304 21.78 27.09C21.7097 27.0188 21.6672 26.9248 21.66 26.825V20.325C21.6565 20.267 21.6654 20.2089 21.6861 20.1546C21.7068 20.1003 21.7388 20.051 21.78 20.01C21.8497 19.9411 21.9422 19.9002 22.04 19.895H23V19.905ZM31.59 17.755C31.6886 17.7611 31.7814 17.8039 31.85 17.875C31.8919 17.9144 31.9244 17.9627 31.9452 18.0164C31.9659 18.07 31.9744 18.1276 31.97 18.185V18.615C31.9744 18.6724 31.9659 18.73 31.9452 18.7836C31.9244 18.8373 31.8919 18.8856 31.85 18.925C31.81 18.9661 31.7615 18.998 31.7081 19.0187C31.6546 19.0394 31.5973 19.0484 31.54 19.045H18.655C18.597 19.0481 18.539 19.0391 18.4848 19.0184C18.4305 18.9978 18.3812 18.9659 18.34 18.925C18.2703 18.8559 18.2293 18.763 18.225 18.665V18.165C18.2206 18.1081 18.2287 18.0509 18.2485 17.9974C18.2684 17.9439 18.2996 17.8953 18.34 17.855C18.4112 17.7847 18.5052 17.7422 18.605 17.735H31.605L31.59 17.755ZM34.29 26.255C33.8717 25.8435 33.3314 25.5787 32.75 25.5C32.1698 25.5759 31.6296 25.8372 31.21 26.245C30.9347 26.477 30.6325 26.675 30.31 26.835C29.9514 26.9626 29.5787 27.0465 29.2 27.085C28.6343 27.1038 28.0881 27.2958 27.635 27.635C27.277 28.0843 27.0798 28.6405 27.075 29.215C27.0393 29.5883 26.9587 29.956 26.835 30.31C26.675 30.6325 26.477 30.9347 26.245 31.21C25.8372 31.6296 25.5759 32.1698 25.5 32.75C25.5759 33.3302 25.8372 33.8704 26.245 34.29C26.477 34.5653 26.675 34.8675 26.835 35.19C26.9626 35.5486 27.0465 35.9213 27.085 36.3C27.1038 36.8657 27.2958 37.4119 27.635 37.865C28.0843 38.223 28.6405 38.4202 29.215 38.425C29.5883 38.4607 29.956 38.5413 30.31 38.665C30.6325 38.825 30.9347 39.023 31.21 39.255C31.6296 39.6628 32.1698 39.9241 32.75 40C33.3302 39.9241 33.8704 39.6628 34.29 39.255C34.5653 39.023 34.8675 38.825 35.19 38.665C35.5486 38.5374 35.9213 38.4535 36.3 38.415C36.8657 38.3962 37.4119 38.2042 37.865 37.865C38.223 37.4157 38.4202 36.8595 38.425 36.285C38.4607 35.9117 38.5413 35.544 38.665 35.19C38.825 34.8675 39.023 34.5653 39.255 34.29C39.6628 33.8704 39.9241 33.3302 40 32.75C39.9241 32.1698 39.6628 31.6296 39.255 31.21C39.023 30.9347 38.825 30.6325 38.665 30.31C38.5374 29.9514 38.4535 29.5787 38.415 29.2C38.3962 28.6343 38.2042 28.0881 37.865 27.635C37.4157 27.277 36.8595 27.0798 36.285 27.075C35.9117 27.0393 35.544 26.9587 35.19 26.835C34.8675 26.675 34.5653 26.477 34.29 26.245V26.255ZM34.93 30.395C34.9965 30.329 35.0863 30.292 35.18 30.292C35.2737 30.292 35.3635 30.329 35.43 30.395L35.96 30.895C36.0136 30.9673 36.0425 31.055 36.0425 31.145C36.0425 31.235 36.0136 31.3227 35.96 31.395L32.62 35.1C32.5537 35.1746 32.472 35.2339 32.3804 35.2736C32.2889 35.3133 32.1898 35.3326 32.09 35.33C31.9907 35.3292 31.8927 35.3084 31.8016 35.2689C31.7106 35.2293 31.6284 35.1719 31.56 35.1L29.755 33.3C29.7183 33.2695 29.6887 33.2313 29.6685 33.1881C29.6482 33.1449 29.6377 33.0977 29.6377 33.05C29.6377 33.0023 29.6482 32.9551 29.6685 32.9119C29.6887 32.8687 29.7183 32.8305 29.755 32.8L30.255 32.3C30.2887 32.2633 30.3297 32.2341 30.3753 32.214C30.4209 32.194 30.4702 32.1837 30.52 32.1837C30.5698 32.1837 30.6191 32.194 30.6647 32.214C30.7103 32.2341 30.7513 32.2633 30.785 32.3L32.065 33.605L34.93 30.395Z" fill="#EA7317"/>
</svg>
