<svg width="40" height="40" viewBox="0 0 40 40" fill="none" xmlns="http://www.w3.org/2000/svg">
<path d="M20.3183 5.74037C19.1513 5.74037 18.2051 6.68537 18.2051 7.85116C18.2051 9.01713 19.1513 9.96213 20.3183 9.96213C21.4857 9.96213 22.4321 9.01713 22.4321 7.85116C22.4321 6.68537 21.4857 5.74037 20.3183 5.74037Z" fill="#EA7317"/>
<path d="M31.5698 5.40819C30.8851 5.40819 30.3301 5.9624 30.3301 6.64624C30.3301 7.33033 30.885 7.8847 31.5698 7.8847C32.2547 7.8847 32.8096 7.33033 32.8096 6.64624C32.8096 5.9624 32.2547 5.40819 31.5698 5.40819Z" fill="#EA7317"/>
<path d="M38.8184 0H1.21827C0.555309 0 0 0.596297 0 1.25844V15.2206C0 15.8829 0.555309 16.2761 1.21827 16.2761H18.6646L19.2499 17.365L20.0387 18.7749C20.1758 19.0136 20.5221 19.0277 20.6553 18.7873L21.411 17.3558L21.9722 16.2761H38.8184C39.4814 16.2761 40 15.8829 40 15.2206V1.25844C40 0.596297 39.4813 0 38.8184 0ZM10.0477 11.0436C9.93243 11.0668 9.79424 11.1643 9.79424 11.2821V11.6679C9.79424 11.8018 9.79078 11.8372 9.65654 11.8372H8.73852C8.60444 11.8372 8.47737 11.8018 8.47737 11.6679V11.2877C8.47737 11.1705 8.4014 11.0731 8.28642 11.0495C7.2079 10.8262 6.57103 10.1296 6.39383 9.38572C6.35811 9.23545 6.4828 9.04228 6.63745 9.04228H7.85012C7.94403 9.04228 8.03004 9.14552 8.06872 9.2311C8.23416 9.59558 8.5828 9.8879 9.29111 9.8879C9.96288 9.8879 10.1997 9.61244 10.1997 9.30064C10.1997 8.91207 9.99457 8.73476 8.81737 8.46439C7.05794 8.04261 6.49918 7.34751 6.49918 6.42257C6.49918 5.50806 7.047 4.76388 8.15967 4.51086C8.27268 4.48513 8.31268 4.39044 8.31268 4.27453V4.04141C8.31268 3.90733 8.50757 3.69928 8.64181 3.69928H9.55556C9.6898 3.69928 9.79416 3.90733 9.79416 4.04141V4.27017C9.79416 4.38707 9.88049 4.48423 9.99514 4.50856C11.0607 4.73651 11.5571 5.38385 11.7037 6.00555C11.7402 6.16083 11.6286 6.32968 11.4689 6.32968H10.2596C10.1594 6.32968 10.0712 6.24912 10.0337 6.15648C9.94017 5.92573 9.73317 5.63655 9.00683 5.63655C8.31942 5.63655 8.17737 5.95722 8.17737 6.19388C8.17737 6.54677 8.40642 6.71603 9.50049 6.96453C11.4139 7.3868 11.9007 8.09563 11.9007 9.10138C11.9009 10.066 11.2626 10.7985 10.0477 11.0436ZM24.7737 8.31339C24.7737 8.42773 24.7172 8.52679 24.6055 8.5512L24.0559 8.67418C23.9684 8.69325 23.9046 8.75909 23.8798 8.84516C23.7783 9.2043 23.6266 9.54133 23.4277 9.84704C23.3755 9.92735 23.3761 10.0304 23.4277 10.1112L23.7107 10.5511C23.7724 10.6476 23.7592 10.7738 23.6781 10.8547L23.1745 11.3578C23.0935 11.4386 22.967 11.4522 22.8708 11.3907L22.3751 11.0735C22.2995 11.0252 22.2034 11.0225 22.1251 11.0661C21.8113 11.2408 21.4695 11.371 21.1081 11.4487C21.0147 11.4689 20.9414 11.5412 20.9208 11.6343L20.8063 12.1068C20.7817 12.2185 20.6826 12.2483 20.5681 12.2483H19.8555C19.741 12.2483 19.642 12.2186 19.6174 12.1068L19.4895 11.5495C19.4703 11.462 19.4044 11.4045 19.3179 11.3803C18.9654 11.2809 18.6342 11.1366 18.3328 10.944C18.2523 10.8924 18.1498 10.8952 18.0695 10.9466L17.6151 11.2387C17.5186 11.3005 17.3921 11.2876 17.3113 11.2067L16.8075 10.7037C16.7265 10.6228 16.7127 10.4967 16.7746 10.4005L17.095 9.90088C17.1437 9.82476 17.1463 9.72851 17.1017 9.65C16.9254 9.33804 16.7933 8.99797 16.7132 8.63801C16.6928 8.54536 16.6206 8.47261 16.5277 8.45239L15.9598 8.33854C15.8478 8.31396 15.7202 8.21491 15.7202 8.10057V7.38886C15.7202 7.27451 15.8477 7.17562 15.9598 7.15104L16.552 7.02659C16.6402 7.00719 16.7225 6.94069 16.7464 6.85364C16.8453 6.49466 17.0031 6.1573 17.1993 5.85085C17.2504 5.7707 17.2538 5.66844 17.2026 5.58837L16.9236 5.15122C16.8619 5.05488 16.8765 4.9287 16.9574 4.84781L17.4615 4.34465C17.5425 4.26376 17.6691 4.25012 17.7658 4.31177L18.2444 4.61797C18.3204 4.66664 18.4175 4.66902 18.4961 4.62406C18.8159 4.44198 19.1652 4.30618 19.5354 4.2257C19.6286 4.20548 19.7016 4.13323 19.7219 4.04025L19.8304 3.55378C19.855 3.4419 19.954 3.3703 20.0687 3.3703H20.781C20.8956 3.3703 20.9948 3.4419 21.0193 3.55378L21.1392 4.09558C21.1584 4.18386 21.225 4.25184 21.312 4.27593C21.6785 4.37679 22.0224 4.53158 22.3337 4.73306C22.4143 4.78509 22.5173 4.78526 22.598 4.73371L23.0216 4.46253C23.1182 4.40071 23.2445 4.41428 23.3254 4.49516L23.8291 4.99832C23.9101 5.07921 23.9238 5.20556 23.8621 5.30157L23.5585 5.77506C23.51 5.85068 23.5074 5.94711 23.5516 6.02545C23.7323 6.34604 23.8667 6.69638 23.9451 7.06712C23.965 7.16091 24.0375 7.2344 24.1313 7.25478L24.6056 7.36379C24.7173 7.38836 24.7737 7.48709 24.7737 7.60176V8.31339H24.7737ZM32.8097 11.8372H30.3303C30.1257 11.8372 29.9599 11.6714 29.9599 11.4673C29.9599 11.2631 30.1257 11.0973 30.3303 11.0973H32.8097C33.0143 11.0973 33.1801 11.2631 33.1801 11.4673C33.1801 11.6714 33.0143 11.8372 32.8097 11.8372ZM33.1687 8.95621V9.68461C33.1687 9.96558 32.9961 10.1931 32.715 10.1931H30.4672C30.186 10.1931 29.9588 9.96558 29.9588 9.68461V8.95621C29.0534 8.4145 28.6523 7.50575 28.6523 6.51677C28.6523 4.89828 29.9709 3.58124 31.5914 3.58124C33.2119 3.58124 34.5027 4.8982 34.5027 6.51677C34.5028 7.50616 34.0741 8.4145 33.1687 8.95621Z" fill="#EA7317"/>
<path d="M23.8573 30.781C22.5686 30.8255 21.5851 31.2269 20.9389 31.9741C20.7554 32.1848 20.6147 32.4087 20.5035 32.6323C20.3926 32.4087 20.2516 32.1849 20.0686 31.9741C19.4221 31.2269 18.4407 30.8255 17.1498 30.781C16.9518 30.7701 16.7777 30.9308 16.7685 31.1322C16.7648 31.1954 16.7027 32.7064 17.7287 33.7995C18.286 34.3949 19.0947 34.7445 20.0001 34.8443V39.4913C20.0001 39.7726 20.1715 40 20.4528 40C20.7344 40 20.9054 39.7726 20.9054 39.4913V35.8658V34.8448V34.8443C21.8108 34.7445 22.6703 34.3949 23.2277 33.7995C24.2534 32.7064 24.2156 31.1953 24.2138 31.1322C24.2027 30.9308 24.0649 30.7701 23.8573 30.781Z" fill="#EA7317"/>
<path d="M19.835 28.8706C19.835 29.1514 20.0065 29.3793 20.2876 29.3793C20.5688 29.3793 20.7403 29.1515 20.7403 28.8706V27.9458C20.7403 27.665 20.5688 27.4372 20.2876 27.4372C20.0065 27.4372 19.835 27.6649 19.835 27.9458V28.8706Z" fill="#EA7317"/>
<path d="M19.835 25.7264C19.835 26.0072 20.0065 26.235 20.2876 26.235C20.5688 26.235 20.7403 26.0072 20.7403 25.7264V24.8016C20.7403 24.5208 20.5688 24.2929 20.2876 24.2929C20.0065 24.2929 19.835 24.5207 19.835 24.8016V25.7264Z" fill="#EA7317"/>
<path d="M20.2876 23.0907C20.5688 23.0907 20.7403 22.8629 20.7403 22.582V21.6572C20.7403 21.3764 20.5688 21.1486 20.2876 21.1486C20.0065 21.1486 19.835 21.3764 19.835 21.6572V22.582C19.835 22.8629 20.0065 23.0907 20.2876 23.0907Z" fill="#EA7317"/>
<path d="M12.3592 27.167C11.0683 27.2114 10.0868 27.6127 9.44076 28.36C9.2573 28.5726 9.11458 28.7966 9.00545 29.02C8.89434 28.7965 8.75351 28.5726 8.5703 28.36C7.92388 27.6127 6.94076 27.2114 5.6517 27.167C5.45154 27.1614 5.2796 27.3169 5.26849 27.5184C5.26643 27.5831 5.19228 29.0942 6.21845 30.1872C6.77574 30.781 7.57211 31.1305 8.47746 31.2303V32.2514V39.4913C8.47746 39.7726 8.68964 40 8.97129 40C9.25294 40 9.46512 39.7726 9.46512 39.4913V32.2514V31.2304C10.3705 31.1305 11.2011 30.781 11.7586 30.1873C12.7824 29.0943 12.7319 27.5831 12.7282 27.5184C12.719 27.317 12.5629 27.1558 12.3592 27.167Z" fill="#EA7317"/>
<path d="M8.47754 25.5943C8.47754 25.8751 8.69021 26.103 8.97137 26.103C9.25252 26.103 9.46519 25.8752 9.46519 25.5943V24.6696C9.46519 24.3886 9.25252 24.1609 8.97137 24.1609C8.69021 24.1609 8.47754 24.3886 8.47754 24.6696V25.5943Z" fill="#EA7317"/>
<path d="M8.97137 22.9588C9.25252 22.9588 9.46519 22.731 9.46519 22.4501V21.5253C9.46519 21.2443 9.25252 21.0166 8.97137 21.0166C8.69021 21.0166 8.47754 21.2443 8.47754 21.5253V22.4501C8.47754 22.7309 8.69021 22.9588 8.97137 22.9588Z" fill="#EA7317"/>
<path d="M35.518 27.167C34.2291 27.2114 33.2458 27.6127 32.5994 28.36C32.4161 28.5726 32.2753 28.7966 32.1641 29.02C32.055 28.7965 31.9123 28.5726 31.7291 28.36C31.0827 27.6127 30.1014 27.2114 28.8105 27.167C28.6105 27.1614 28.4384 27.3169 28.429 27.5184C28.4253 27.5831 28.3785 29.0942 29.4023 30.1872C29.9599 30.781 30.6992 31.1305 31.6869 31.2303V39.4913C31.6869 39.7726 31.8583 40 32.1396 40C32.4212 40 32.5923 39.7726 32.5923 39.4913V32.2532V31.2304C33.5799 31.1305 34.3439 30.781 34.9013 30.1873C35.9274 29.0943 35.8829 27.5831 35.8811 27.5184C35.8698 27.317 35.7236 27.1614 35.518 27.167Z" fill="#EA7317"/>
<path d="M31.6865 25.5943C31.6865 25.8751 31.858 26.103 32.1392 26.103C32.4204 26.103 32.5919 25.8752 32.5919 25.5943V24.6696C32.5919 24.3886 32.4204 24.1609 32.1392 24.1609C31.858 24.1609 31.6865 24.3886 31.6865 24.6696V25.5943Z" fill="#EA7317"/>
<path d="M32.1392 22.9588C32.4204 22.9588 32.5919 22.731 32.5919 22.4501V21.5253C32.5919 21.2443 32.4204 21.0166 32.1392 21.0166C31.858 21.0166 31.6865 21.2443 31.6865 21.5253V22.4501C31.6865 22.7309 31.858 22.9588 32.1392 22.9588Z" fill="#EA7317"/>
</svg>
