<svg width="40" height="40" viewBox="0 0 40 40" fill="none" xmlns="http://www.w3.org/2000/svg">
<path d="M36.5332 27.9144C35.9832 32.3477 32.3498 35.981 27.9165 36.531C25.2332 36.8644 22.7332 36.131 20.7832 34.6977C19.6665 33.881 19.9332 32.1477 21.2665 31.7477C26.2832 30.231 30.2332 26.2644 31.7665 21.2477C32.1665 19.9311 33.8998 19.6644 34.7165 20.7644C36.1332 22.7311 36.8665 25.231 36.5332 27.9144Z" fill="#EA7317"/>
<path d="M16.65 3.33337C9.30001 3.33337 3.33334 9.30004 3.33334 16.65C3.33334 24 9.30001 29.9667 16.65 29.9667C24 29.9667 29.9667 24 29.9667 16.65C29.95 9.30004 24 3.33337 16.65 3.33337ZM15.0833 14.7834L19.1 16.1834C20.55 16.7 21.25 17.7167 21.25 19.2834C21.25 21.0834 19.8167 22.5667 18.0667 22.5667H17.9167V22.65C17.9167 23.3334 17.35 23.9 16.6667 23.9C15.9833 23.9 15.4167 23.3334 15.4167 22.65V22.55C13.5667 22.4667 12.0833 20.9167 12.0833 18.9834C12.0833 18.3 12.65 17.7334 13.3333 17.7334C14.0167 17.7334 14.5833 18.3 14.5833 18.9834C14.5833 19.5834 15.0167 20.0667 15.55 20.0667H18.05C18.4333 20.0667 18.7333 19.7167 18.7333 19.2834C18.7333 18.7 18.6333 18.6667 18.25 18.5334L14.2333 17.1334C12.8 16.6334 12.0833 15.6167 12.0833 14.0334C12.0833 12.2334 13.5167 10.75 15.2667 10.75H15.4167V10.6834C15.4167 10 15.9833 9.43337 16.6667 9.43337C17.35 9.43337 17.9167 10 17.9167 10.6834V10.7834C19.7667 10.8667 21.25 12.4167 21.25 14.35C21.25 15.0334 20.6833 15.6 20 15.6C19.3167 15.6 18.75 15.0334 18.75 14.35C18.75 13.75 18.3167 13.2667 17.7833 13.2667H15.2833C14.9 13.2667 14.6 13.6167 14.6 14.05C14.5833 14.6167 14.6833 14.65 15.0833 14.7834Z" fill="#EA7317"/>
</svg>
