<svg width="40" height="40" viewBox="0 0 40 40" fill="none" xmlns="http://www.w3.org/2000/svg">
<g opacity="0.2">
<rect width="40" height="40" rx="20" fill="#EA7317"/>
</g>
<path fill-rule="evenodd" clip-rule="evenodd" d="M16.29 27.9998C23.837 27.9998 27.965 21.8434 27.965 16.5052C27.965 16.3299 27.965 16.156 27.953 15.9827C28.756 15.4117 29.449 14.7027 30 13.8914C29.252 14.2183 28.457 14.4326 27.644 14.5271C28.5 14.0221 29.141 13.2286 29.448 12.2923C28.642 12.7629 27.761 13.095 26.842 13.2732C25.288 11.6468 22.689 11.568 21.036 13.0979C19.971 14.0844 19.518 15.5553 19.849 16.9583C16.55 16.7949 13.476 15.261 11.392 12.7376C10.303 14.5836 10.86 16.9443 12.663 18.1297C12.01 18.111 11.371 17.9379 10.8 17.6248V17.6761C10.801 19.5989 12.178 21.2545 14.092 21.6355C13.488 21.798 12.854 21.8215 12.24 21.7044C12.777 23.3505 14.318 24.478 16.073 24.5105C14.62 25.6349 12.825 26.2454 10.977 26.2434C10.651 26.2425 10.325 26.2237 10 26.1853C11.877 27.3707 14.06 27.9998 16.29 27.9969" fill="#EA7317"/>
</svg>
